<svg xmlns="http://www.w3.org/2000/svg" width="350" height="350" fill="none" viewBox="0 0 350 350"><circle cx="174.988" cy="174.989" r="148.737" fill="#fbce51"/><g fill="#313131" style="mix-blend-mode:overlay"><path d="m239.233 302.568-.176-.369.674-.462-1.883-3.764-.15 1.245-.859 3.718.083.206.703-.225.176.369-2.072 1.051-.177-.368.566-.399-2.319-4.708-.66.236-.177-.368 2.115-1.04.177.368-.609.388 1.915 3.819.127-1.16.882-3.804-.157-.271-.758.256-.176-.369 2.115-1.04.177.369-.609.388 2.319 4.707.649-.194.176.369zM234.105 304.913a5 5 0 0 1-.554.356 3 3 0 0 1-.477.239c-.629.291-1.169.422-1.609.35s-.748-.292-.945-.758c-.165-.412-.201-.789-.055-1.163s.409-.671.746-.902c-.466.197-.886.222-1.271.119-.374-.146-.628-.398-.805-.767-.259-.574-.273-1.037-.061-1.485s.681-.828 1.419-1.181c.314-.145.617-.248.854-.276.249-.071.486-.1.626-.108s.237-.028.28-.017l.449 1.406-.368.177-.673-.915c-.312-.037-.658.053-1.123.25-.358.134-.555.356-.635.656-.081.3-.032.634.133 1.046.145.314.356.554.644.678q.433.184 1.132-.11l.52-.228.208.423-.466.196c-.206.083-.38.22-.566.399a1.8 1.8 0 0 0-.301.609c-.014.225.003.505.117.765.133.357.356.555.613.624s.548.009.906-.125c.217-.125.423-.208.554-.356q.198-.224.232-.351l-.159-.778.477-.239.604 1.172a5 5 0 0 0-.446.294M227.244 307.389l.68-.139.165.412-1.071.401c-.163.094-.412.165-.672.279s-.423.208-.532.271c-.714.268-1.285.344-1.671.241-.385-.103-.682-.367-.836-.821-.134-.357-.17-.734-.036-1.065.092-.343.355-.64.681-.828-.509.185-.94.253-1.314.107a1.34 1.34 0 0 1-.824-.864c-.228-.52-.188-1.014.078-1.493.267-.48.79-.891 1.656-1.21.206-.082.357-.133.551-.173.4-.123.66-.237.758-.256l1.028-.413.123.4-.64.333zm-3.562-4.351c-.521.227-.858.458-1.035.778-.178.32-.13.654-.007 1.054.165.412.376.652.664.775q.433.185 1.132-.11c.52-.228.866-.319 1.028-.413l-.885-2.349c-.183-.003-.443.111-.897.265m1.47 2.735-.411.165q-.536.201-.721.633c-.123.289-.118.612.059.98.134.358.345.598.59.709.246.112.623.075 1.089-.121.206-.083.369-.177.574-.259l.163-.094-.834-2.198c-.109.063-.26.114-.509.185M220.557 310.418l-.866.319-3.791-4.872-.528.088-.123-.4 2.121-.718.122.4-.629.291.767 1.078 2.326-.8-.021-1.291-.723.128-.122-.401 1.915-.634.122.4-.477.239zm-.896-1.112.431.62-.062-.797-.071-2.819-2.024.697zM213.969 306.22c.514.137.908.381 1.256.795s.63.904.781 1.541a3.8 3.8 0 0 1 .089 1.722 2.46 2.46 0 0 1-.733 1.365 3.44 3.44 0 0 1-1.369.827c-.4.122-.929.21-1.532.232l-.279.017-.342-1.469.552-.173.522.966c.085.023.257.068.439.072.183.003.432-.068.723-.128.346-.091.629-.291.838-.556s.355-.64.372-1.048a4.6 4.6 0 0 0-.169-1.423c-.142-.497-.339-.963-.613-1.312-.274-.348-.559-.654-.89-.789a1.68 1.68 0 0 0-1.128-.073c-.292.06-.509.185-.618.248a1.2 1.2 0 0 0-.317.328l-.101.891-.529.088-.141-1.185c.097-.02.26-.114.477-.24.175-.137.338-.231.543-.313.163-.094.412-.166.66-.237a2.1 2.1 0 0 1 1.509-.146M207.619 312.782c-.169.46-.424.896-.729 1.182-.361.316-.741.536-1.172.604-.54.13-1.035.09-1.451-.068a2.5 2.5 0 0 1-1.105-.847 3.4 3.4 0 0 1-.652-1.506q-.208-1.02-.067-1.808a2.8 2.8 0 0 1 .691-1.376c.328-.371.751-.579 1.249-.721.54-.131 1.045-.133 1.505.036s.799.444 1.116.804c.305.403.544.88.652 1.506l1.317-.29-.551-2.397-.711.085-.08-.389 2.258-.543.079.389-.66.236 1.205 5.098.657-.054.08.389-2.203.511-.08-.388.66-.237-.511-2.202-1.329.332c.011.646-.041 1.183-.168 1.654m-.931.393c.192-.545.193-1.234-.018-2.162-.202-.789-.492-1.418-.895-1.801-.402-.383-.862-.552-1.444-.433-.54.131-.858.459-1.038.961-.181.503-.15 1.245.06 2.174.202.789.449 1.406.852 1.789.391.426.862.553 1.359.41.571-.076.932-.393 1.124-.938M198.031 312.416c-.254-.252-.625-.58-1.016-1.007-.285-.306-.454-.534-.602-.666q-.223-.197-.351-.232l-.311-.037-.08-.389 1.014-.187q.21-.013.48.266c.18.186.465.492.77.895.379.469.665.775.919 1.027q.316.36.608.3l.528-.088-.423-2.362-.742.03-.08-.388 2.266-.403.068.431-.649.194.914 5.157h.688l.068.432-2.211.371-.045-.517.66-.236-.411-2.406-.723.128-1.272 2.689.7-.042.068.432-2.028.374-.068-.431.648-.193 1.38-2.752c-.225-.015-.502-.181-.767-.39M194.265 310.535c.449.212.777.529 1.016 1.007.251.434.425.986.532 1.611a3.4 3.4 0 0 1-.147 1.751 3 3 0 0 1-.839 1.245 2.8 2.8 0 0 1-1.397.589c-.863.136-1.591-.059-2.099-.562s-.873-1.198-.975-2.189c-.096-.669-.032-1.249.148-1.751.192-.546.478-.928.85-1.287a3.1 3.1 0 0 1 1.398-.59c.571-.077 1.065-.036 1.513.176m.349 4.868c.235-.534.321-1.2.208-2.148-.093-.851-.341-1.469-.72-1.938-.38-.468-.839-.638-1.368-.55-.528.088-.92.351-1.155.885-.235.533-.333 1.242-.208 2.147.093.852.341 1.469.732 1.895.348.415.796.627 1.367.55.506-.002.909-.307 1.144-.841M189.139 316.644l.677.044.025.42-1.131.11c-.183-.003-.431.068-.711.085-.292.06-.474.056-.572.076-.754.074-1.334.01-1.685-.222-.351-.231-.539-.557-.595-1.032a1.76 1.76 0 0 1 .232-1.039c.166-.277.504-.508.904-.63-.517.045-.957-.027-1.308-.259s-.528-.6-.553-1.02c-.034-.56.092-1.031.476-1.434.383-.402 1-.65 1.937-.72a2.2 2.2 0 0 1 .603-.022c.42-.025.7-.042.785-.019l1.132-.11.025.42-.68.139zm-2.247-5.147c-.56.034-.972.199-1.181.464q-.377.381-.275 1.028c.025.42.17.735.405.889.234.155.619.258 1.093.202.56-.034.937-.071 1.089-.122l-.206-2.488c-.171-.046-.451-.029-.925.027m.702 3.035-.475.056c-.377.037-.691.182-.846.416-.154.234-.246.577-.209.954.036.377.139.68.373.835s.577.246 1.051.189c.194-.039.42-.025.626-.107l.194-.04-.197-2.348c-.14.008-.28.016-.517.045M175.91 317.874l-.026-.42.723-.128-.159-5.23-.806-.078-.025-.42 2.357-.057.025.42-.711.085.148 5.273 2.679-.063-.148-5.273-.763-.067-.025-.419 2.357-.058.025.42-.668.097.159 5.23.708.098.025.42zM173.922 311.925c.383.286.699.646.884 1.155.197.465.273 1.037.284 1.682-.032.635-.138 1.203-.405 1.682-.266.48-.595.851-1.029 1.102a2.9 2.9 0 0 1-1.438.395c-.871-.004-1.522-.316-1.975-.851-.442-.577-.656-1.323-.66-2.334a3.46 3.46 0 0 1 .416-1.725c.266-.48.607-.893 1.041-1.144a2.83 2.83 0 0 1 1.48-.384c.549.009 1.02.135 1.402.422m-.34 4.867c.309-.468.493-1.154.508-2.068-.007-.828-.146-1.508-.429-1.997-.282-.489-.719-.744-1.267-.753s-.983.242-1.292.71-.504 1.196-.519 2.11c-.004.871.103 1.497.428 1.997.283.489.719.744 1.268.753.528-.088.951-.296 1.303-.752M166.933 313.679c.164-.783.356-1.328.642-1.711.143-.191.275-.339.438-.433s.357-.134.54-.131c.268.026.451.029.58.063l-.001.689c-.129-.035-.354-.049-.623-.075q-.128-.034-.291.06a.9.9 0 0 0-.24.211c-.495.647-.766 1.998-.897 4.029l-.043.677.965.167-.017.408-4.879-.297.018-.408.797-.062.346-5.233-.837-.132.018-.409 2.567.183-.017.409-.883.039-.346 5.232 1.719.094.067-.763c.124-.977.225-1.868.377-2.607M161.579 316.697l.686.184-.061.397-4.284-.459.033-1.323.494.041.148.82 2.082.282.265-2.362-1.385-.142-.184.686-.451-.029.194-1.923.451.03.031.742 1.373.185.258-2.502-2.385-.18-.544 1.002-.491-.224.39-1.456 4.638.508-.06.397h-.689zM154.622 315.935l1.428.153.545-1.69.526.094-.457 2.219-5.204-.797.231-2.234.526.095.023 1.797 1.448.25.766-5.258-1.168-.267.061-.397 3.176.484-.061.397-1.085-.061zM148.615 311.8l.397.06c.151-.051.337-.231.492-.465s.417-.53.649-.882c.232-.351.441-.616.584-.807s.251-.254.337-.231l1.137.213-.061.397-.334.048c-.097.02-.194.039-.326.188-.12.105-.317.328-.526.593-.275.34-.484.605-.67.785-.197.223-.36.317-.566.399q.544.284.762.755t.11 1.132c-.129.654-.427 1.079-.838 1.244-.455.154-1.014.187-1.754.035l-.6-.161-.599-.16-1.18-.224.061-.397.719.055 1.012-5.146-.76-.25.061-.397 2.444.471-.06.397-.805-.078-.403 2.188zm-1.146 2.906.642.173c.44.072.763.066 1.034-.091.272-.156.438-.433.521-.916.072-.44.036-.817-.164-1.1s-.477-.449-.905-.564c-.44-.072-.74-.152-.88-.144l-.494 2.531zM142.699 313.658l1.437.293.673-1.656.557.15-.671 2.161-5.089-1.226.414-2.23.514.138-.159 1.793 1.413.379 1.206-5.186-1.145-.353.103-.385 3.15.752-.103.386-1.105-.159zM137.289 306.608c.359.371.556.837.644 1.366.088.528.024 1.108-.148 1.751a3.23 3.23 0 0 1-.853 1.47c-.383.402-.86.641-1.358.784-.54.13-1.034.09-1.591-.059-.428-.115-.876-.327-1.441-.616l-.246-.112.519-1.422.557.149-.105 1.074c.063.109.18.186.34.275s.405.2.662.269a1.9 1.9 0 0 0 1.012-.004c.303-.103.64-.334.872-.685.274-.339.486-.788.624-1.302s.221-.996.207-1.459a2.5 2.5 0 0 0-.324-1.189q-.282-.489-.925-.661c-.299-.08-.514-.137-.696-.141a.86.86 0 0 0-.443.111l-.55.68-.491-.224.524-1.099c.129.034.312.038.537.052.226.015.409.018.592.021s.44.072.697.141c.556.149 1.036.415 1.384.83M128.977 310.211l.146-.374.826.175 1.39-3.988-.981.747-3.25 2.021-.057.214.693.324-.146.374-2.181-.768.146-.374.654.129 1.697-4.962-.651-.313.146-.374 2.224.78-.146.374-.739-.152-1.402 4.031.926-.715 3.348-2.042.08-.3-.736-.335.146-.374 2.224.78-.146.374-.697-.141-1.697 4.963.608.3-.146.374zM120.372 307.033l.745-2.096.546.192-.405 1.682 1.687.728 1.966-4.937-1.345-.635.146-.374 3.078 1.191-.146.375-.9-.241-1.899 4.862.799.444-.146.374zM119.228 305.992l.543.375-.147.374-2.092-.928.146-.374.685.183.917-2.049-2.712-1.186-.917 2.05.585.386-.146.374-2.05-.917.146-.374.643.173 2.114-4.805-.597-.344.146-.374 2.05.917-.146.374-.674-.227-1.017 2.253 2.713 1.186 1.016-2.253-.639-.355.146-.374 2.135.939-.146.375-.631-.215zM111.245 302.889l-.81-.401.77-6.129-.426-.298.189-.362 1.984.99-.189.363-.674-.227-.204 1.277 2.187 1.091.898-.953-.628-.398.189-.362 1.781.89-.189.363-.502-.181zm.111-1.44-.153.74.527-.594 1.97-2.043-1.898-.967zM107.95 296.681q.726-.908 1.313-1.301c.217-.126.369-.177.563-.217.183.003.354.049.557.149.245.112.394.244.511.321l-.258.619c-.117-.077-.277-.166-.554-.332a.28.28 0 0 0-.257-.068.9.9 0 0 0-.303.102c-.694.365-1.541 1.469-2.572 3.259l-.343.597.807.583-.189.363-4.23-2.373.189-.363.748.293 2.562-4.593-.702-.464.189-.363 2.281 1.254-.189.363-.78-.347-2.55 4.55 1.481.811.367-.683c.401-.81.876-1.555 1.359-2.16M95.309 293.66l.232-.351.736.335 2.796-4.438-.605-.483.232-.352 2.075 1.337-.232.351-.693-.324-2.796 4.439.605.483-.232.351zm5.775.721c-.585-.386-.933-.8-1.087-1.255q-.23-.681.25-1.448c.332-.554.778-.847 1.307-.935s1.085.061 1.682.405c.074.065.16.088.234.154s.148.132.234.155c.265.209.499.363.691.506l.979.63-.232.351-.651-.312-2.796 4.438.519.461-.232.351-2.043-1.282.231-.351.78.346 1.039-1.65zm2.408-2.476a1.8 1.8 0 0 0-.394-.243c-.394-.244-.779-.347-1.125-.256s-.64.334-.938.759c-.243.394-.335.736-.244 1.082q.136.518.727.884l.745.475 1.514-2.395a.8.8 0 0 0-.285-.306M92.407 290.955l.465.492-.232.351-1.838-1.365.232-.351.64.355 1.364-1.838-2.38-1.74-1.365 1.838.465.492-.232.351-1.795-1.353.232-.351.608.3 3.104-4.218-.476-.449.232-.351 1.838 1.365-.232.351-.597-.344-1.442 1.955 2.38 1.74 1.442-1.955-.55-.515.231-.351 1.881 1.376-.232.351-.596-.343zM85.269 286.241l-.711-.603 2.066-5.828-.347-.414.263-.297 1.74 1.385-.274.339-.585-.386-.462 1.208 1.92 1.57 1.11-.713-.508-.503.263-.297 1.55 1.242-.263.296-.48-.266zm.452-1.347-.28.705.632-.474 2.35-1.573-1.656-1.362zM80.264 281.274l.59.709-.263.297-1.652-1.545 1.695-3.586.532-.959-.903.63-3.421 1.976-1.621-1.49.263-.297.765.572 3.073-4.272-.485-.589.263-.297 1.758 1.665-.264.296-.616-.44-2.277 3.016-.99 1.296 1.086-.627 4.05-2.266.403.383-1.733 3.897-.725 1.505 1.213-1.099 2.84-2.544-.571-.612.263-.297 1.62 1.49-.263.297-.573-.429z"/><path d="m72.904 274.986-.644-.677 2.76-5.504-.294-.446.306-.286 1.544 1.608-.306.285-.574-.429-.633 1.162 1.735 1.75 1.172-.604-.442-.578.306-.285 1.406 1.433-.306.285-.425-.298zm.625-1.301-.367.682.695-.365 2.55-1.291-1.513-1.553zM70.107 271.207l.356.554-.306.286-.739-.841c-.148-.132-.285-.306-.433-.437-.223-.198-.434-.438-.614-.624q-.79-.9-.812-1.595c-.014-.463.23-.857.667-1.29.35-.274.686-.505 1.064-.542.388-.079.785-.019 1.16.127.373.147.713.421 1.03.782l.316.36c.105.12.168.229.211.24l1.387-1.235-.716-.927.306-.285 1.837 2.053-.306.286-.52-.461zm1.055-3.252a1.72 1.72 0 0 0-1.002-.544c-.354-.049-.82.147-1.258.581q-.54.475-.532.959c.005.323.182.692.498 1.052.106.12.255.252.403.383a1 1 0 0 1 .18.186l2.227-1.974c-.105-.12-.274-.349-.516-.643M70.243 263.163a2.2 2.2 0 0 1-.262 1.491c-.223.491-.618.936-1.099 1.358-.48.423-1 .65-1.529.738s-1.077.079-1.568-.144a2.9 2.9 0 0 1-1.307-.947 8 8 0 0 1-.838-1.327l-.114-.26 1.21-.915.347.414-.68.828c.02.097.028.237.11.443.095.163.22.38.388.609.243.294.52.46.862.552.343.092.72.055 1.12-.067.4-.123.835-.373 1.25-.721.414-.348.731-.677.975-1.071.243-.393.389-.767.395-1.133s-.128-.723-.359-1.06c-.168-.229-.359-.372-.507-.504-.149-.131-.277-.166-.417-.157l-.855.276-.293-.446 1.032-.596c.074.066.222.197.413.341.192.143.351.231.5.363.148.131.285.306.508.503q.65.657.718 1.432M56.507 254.8l.337-.231.517.643 3.524-2.36-1.236-.011-3.802-.375-.174.136.322.684-.338.231-1.269-1.947.338-.231.465.492 4.362-2.917-.333-.641.337-.231 1.312 1.959-.338.231-.484-.589-3.58 2.392 1.151-.013 3.888.399.271-.157-.364-.694.337-.231 1.311 1.958-.337.231-.453-.535-4.363 2.917.29.629-.337.231zM53.522 250.006c-.18-.186-.317-.36-.465-.492-.148-.131-.2-.283-.305-.403-.345-.597-.53-1.106-.544-1.569s.207-.771.641-1.021c.38-.22.769-.299 1.154-.196.386.103.694.323.98.629-.251-.434-.362-.877-.259-1.262q.155-.579.661-.925c.5-.325 1.029-.413 1.489-.244s.904.564 1.355 1.281c.157.272.313.543.384.792s.154.454.205.606q.078.226.06.291l-1.312.613-.22-.38.799-.751q-.009-.484-.402-1.071c-.188-.326-.454-.535-.722-.561s-.657.053-1.037.273c-.283.2-.48.422-.604.71-.08.3 0 .689.262 1.081l.325.5-.392.262-.25-.434c-.126-.218-.275-.349-.466-.492a1.14 1.14 0 0 0-.63-.215q-.339-.023-.747.213c-.325.188-.48.422-.549.679-.026.269.034.56.222.886.125.217.262.392.422.48.148.132.277.166.374.147l.757-.257.294.446-1.066.725c-.086-.023-.191-.143-.414-.341M50.21 243.518l.237.66-.369.177-.553-1.021c-.094-.162-.22-.38-.388-.608a5 5 0 0 1-.325-.501c-.364-.694-.495-1.234-.478-1.643.06-.397.281-.705.716-.956.368-.176.714-.267 1.057-.176.354.049.662.27.905.564-.24-.477-.35-.92-.247-1.306.103-.385.323-.693.746-.901.49-.282 1.006-.328 1.497-.104.503.18.968.672 1.427 1.53.094.163.176.368.27.531.177.369.291.629.365.695l.522.966-.369.177-.4-.566zm1.352-2.301-.209-.423c-.188-.325-.399-.566-.699-.646s-.59-.021-.96.156c-.325.188-.566.399-.635.656-.068.257.023.603.23 1.026l.314.543.094.163 2.084-1.094zm2.547-1.796c-.282-.489-.568-.795-.899-.93-.331-.134-.665-.086-1.046.133-.38.22-.62.431-.657.742-.038.312.01.646.261 1.08.282.489.428.804.522.967l2.203-1.2c-.062-.109-.176-.369-.384-.792M46.38 237.258l-.417-.846 4.333-4.348-.142-.498.368-.176.978 2.006-.369.177-.388-.609-.972.887 1.06 2.212 1.294-.204-.224-.703.368-.176.852 1.789-.369.176-.293-.445zm.975-1.07-.6.528.776-.16 2.814-.393-.946-1.952zM49.704 230.161a2.8 2.8 0 0 1-.636 1.344c-.329.371-.84.739-1.415.998a3.3 3.3 0 0 1-1.683.284 3.06 3.06 0 0 1-1.465-.53c-.425-.298-.762-.755-.99-1.275a9 9 0 0 1-.426-1.492l-.06-.291 1.43-.536.227.52-.903.631c-.023.085-.026.268.013.462.04.195.111.443.225.703.146.315.345.598.665.775s.662.27 1.082.244c.42-.025.906-.124 1.426-.352.466-.197.9-.448 1.26-.764.36-.317.581-.625.684-1.011.147-.374.11-.751-.067-1.119-.114-.26-.24-.478-.345-.598s-.21-.24-.382-.286l-.914-.015-.142-.497 1.177-.282c.063.109.157.272.294.446s.285.306.379.469.22.38.333.64c.228.52.316 1.049.233 1.532M42.407 224.67a2.8 2.8 0 0 1-1.27-.57 2.43 2.43 0 0 1-.756-1.12c-.185-.509-.242-.983-.116-1.454.126-.472.327-.877.687-1.194.372-.359.806-.61 1.37-.826a4.9 4.9 0 0 1 1.78-.304c.536.052 1.039.233 1.421.519s.688.689.884 1.155a2.94 2.94 0 0 1 .147 1.508c-.083.483-.327.877-.698 1.236-.372.36-.818.653-1.381.87l.484 1.277 2.295-.854-.17-.734.4-.123.79 2.187-.4.122-.333-.64-4.892 1.811.139.68-.4.122-.803-2.143.4-.123.334.64 2.143-.802-.484-1.278c-.54.131-1.1.164-1.571.038m-.513-.826c.556.149 1.268.064 2.145-.297.769-.299 1.323-.656 1.675-1.112q.528-.686.25-1.448c-.185-.509-.567-.795-1.081-.933s-1.237-.01-2.103.309q-1.153.448-1.663 1.069c-.352.457-.424.897-.24 1.405.131.54.502.869 1.017 1.007M41.598 215.18c.22-.308.506-.691.901-1.136.263-.296.46-.519.604-.71a.8.8 0 0 0 .189-.363l-.006-.323.4-.122.328 1.006c.062.109-.038.311-.181.502q-.232.351-.79.891c-.394.445-.712.773-.92 1.038-.21.266-.267.48-.215.631l.142.498 2.303-.715-.116-.765.4-.123.694 2.206-.4.123-.29-.629-5.007 1.551.096.668-.4.123-.663-2.152.4-.122.291.628 2.303-.714-.225-.703-2.835-.897.128.723-.4.122-.612-2 .4-.123.302.586 2.898 1.006c-.051-.151.072-.44.28-.705M42.945 211.18a2.5 2.5 0 0 1-.858 1.147 4.6 4.6 0 0 1-1.53.738c-.637.151-1.196.184-1.722.089-.525-.095-.962-.349-1.333-.678q-.556-.494-.753-1.304c-.233-.843-.135-1.551.306-2.167.429-.574 1.092-.993 2.032-1.246.637-.151 1.24-.173 1.766-.078a2.9 2.9 0 0 1 1.376.69q.555.493.752 1.303c.131.54.133 1.046-.036 1.506m-4.803.962c.546.192 1.245.15 2.131-.071.832-.191 1.43-.536 1.812-.938.384-.402.521-.916.38-1.414-.132-.54-.503-.869-1.048-1.061s-1.288-.161-2.174.061c-.831.19-1.429.535-1.812.937q-.575.604-.379 1.414c.228.52.588.892 1.09 1.072M36.252 206.861l.042.7-.388.08-.25-1.123c-.04-.195-.111-.443-.182-.692-.072-.248-.154-.454-.163-.594-.159-.777-.15-1.326-.003-1.7.146-.374.483-.605.926-.716.389-.079.743-.03 1.074.105.32.177.574.429.75.797-.13-.54-.113-.948.076-1.311.19-.362.526-.593.958-.661.54-.131 1.065-.036 1.48.304.424.298.758.938.937 1.813.04.194.08.388.076.571.068.431.14.68.16.777l.26 1.08-.388.08-.236-.66zm1.913-1.828-.11-.443c-.08-.389-.237-.66-.514-.826-.234-.155-.588-.204-.988-.082-.389.08-.66.237-.772.482-.112.246-.16.6-.061 1.086.04.194.08.388.162.594l.051.151 2.289-.488c.023-.086-.029-.237-.057-.474m2.9-1.06c-.13-.54-.307-.908-.615-1.129q-.398-.312-1.062-.147c-.432.068-.715.268-.826.514-.155.234-.172.642-.073 1.128.13.54.21.928.261 1.08l2.44-.54c.035-.128-.025-.42-.124-.906M33.34 193.915l.43-.068.226.703 5.177-.817-.02-.785.432-.068.38 2.351-.432.068-.181-.691-5.177.816.428 2.686 5.22-.805-.02-.786.432-.068.337 2.34-.431.068-.194-.649-5.177.817-.012.731-.432.068zM39.033 191.171c-.2.405-.572.765-1.007 1.016s-.986.424-1.643.478q-.986.08-1.74-.191a2.64 2.64 0 0 1-1.232-.881 2.66 2.66 0 0 1-.547-1.386c-.093-.852.102-1.58.605-2.088.503-.507 1.23-.818 2.22-.92q.987-.08 1.74.191.754.271 1.276.893c.305.403.502.869.547 1.386.065.614-.019 1.097-.22 1.502m-4.888.251c.522.278 1.2.322 2.136.251.852-.093 1.458-.298 1.926-.677.458-.337.67-.785.593-1.356-.045-.517-.35-.921-.872-1.198-.523-.278-1.242-.333-2.137-.251-.851.093-1.5.286-1.926.677-.457.337-.626.796-.55 1.368.034.56.339.963.83 1.186M36.37 184.49c.763.066 1.374.184 1.78.384.202.101.35.232.456.352.094.163.145.315.185.509.017.28.014.463-.02.591l-.67.097c-.008-.14-.005-.323-.01-.646-.02-.097-.04-.194-.114-.26s-.148-.132-.265-.209c-.683-.366-2.068-.508-4.125-.37l-.657.053-.026.957-.42.025-.306-4.856.42-.026.16.778 5.232-.343.036-.816.42-.026.182 2.574-.42.025-.136-.862-5.222.299.09 1.723.742-.031c1.054.007 1.926.011 2.688.078M32.688 179.555l-.098.708-.42.025-.089-4.293 1.326-.15.014.463-.8.245-.015 2.108 2.357-.058-.041-1.388-.708-.098-.014-.463 1.937-.032.013.463-.722.128-.014 1.42 2.497-.066-.143-2.38-1.079-.427.138-.514 1.46.208.082 4.659-.42.025-.085-.711zM32.59 172.551l.03 1.431 1.748.33-.009.549-2.245-.189.12-5.247 2.26-.037-.01.548-1.768.261-.067 1.451 5.301.089.096-1.214.409.018-.076 3.193-.408-.017-.067-1.12zM35.938 166.056l-.017.408c.094.163.242.295.519.461q.351.231.96.532c.404.201.681.367.884.467s.308.22.285.306l-.072 1.128-.409-.017-.048-.335c-.02-.097-.094-.163-.2-.283-.16-.088-.35-.231-.659-.452-.362-.189-.628-.398-.862-.552a1.4 1.4 0 0 1-.465-.492 1.77 1.77 0 0 1-.692.87c-.326.189-.672.28-1.123.25-.677-.043-1.125-.255-1.376-.69s-.327-1.005-.272-1.725c.003-.183.049-.354.075-.623.026-.268.083-.483.075-.622l.095-1.214.409.017.042.7 5.232.346.121-.794.409.018-.16 2.482-.409-.018-.007-.828-2.257-.145zm-3.052-.772a2.7 2.7 0 0 0-.087.665c-.029.452.02.786.23 1.026s.5.364.994.404c.451.029.797-.062 1.08-.261.283-.2.375-.543.447-.983.029-.451.055-.719.015-.914l-2.568-.183zM33.31 160.44l-.11 1.44 1.714.459-.052.537-2.242-.372.572-5.218 2.256.146-.052.537-1.765.078-.208 1.459 5.261.583.225-1.179.397.06-.356 3.211-.397-.061.019-1.097zM39.677 154.158a2.7 2.7 0 0 1-1.272.806c-.497.143-1.1.165-1.711.047s-1.157-.31-1.57-.65c-.414-.341-.762-.755-.947-1.264a2.94 2.94 0 0 1-.124-1.594c.072-.44.21-.954.445-1.488l.111-.245 1.48.304-.107.569-1.108.024a1.8 1.8 0 0 0-.243.394c-.09.16-.158.417-.184.685q-.073.532.145 1.003c.145.314.399.566.793.809.35.232.822.358 1.39.465.526.095.989.081 1.463.024.431-.068.843-.233 1.137-.475.295-.243.472-.562.544-1.002q.056-.468.044-.677a1.05 1.05 0 0 0-.154-.455l-.745-.475.138-.514 1.133.396c-.034.128.017.28.045.517.04.194.026.42.065.614s-.017.409-.055.72c-.149.557-.372 1.048-.713 1.462M35.065 146.357l.397.06-.078.806 4.127.876-.868-.875-2.413-2.988-.214-.058-.238.717-.397-.06.468-2.262.397.06-.043.677 5.123 1.098.226-.674.386.103-.48 2.305-.386-.104.067-.762-4.212-.899.836.82 2.444 3.043.3.08.25-.76.397.061-.48 2.305-.397-.061.055-.72-5.123-1.097-.215.631-.397-.06zM37.129 137.453l2.165.488-.15.557-1.696-.179-.525 1.787 5.163 1.292.464-1.391.386.103-.807 3.182-.385-.104.155-.922-5.077-1.269-.315.834-.386-.103zM38.022 136.177l-.3.608-.386-.103.682-2.205.386.104-.098.708 2.161.671.855-2.847-2.162-.671-.3.608-.386-.103.671-2.162.386.104-.087.665 5.009 1.526.258-.62.385.103-.67 2.162-.386-.103.14-.697-2.333-.717-.854 2.847 2.333.717.27-.663.385.104-.683 2.204-.385-.103.129-.654zM40.066 127.864l.326-.876 6.153-.004.266-.48.374.146-.745 2.096-.374-.146.14-.697-1.322-.033-.802 2.31 1.03.781.312-.651.374.146-.645 1.893-.374-.146.095-.525zm1.473-.018-.762-.067.66.452 2.25 1.706.723-2.01zM45.877 123.821c.671.409 1.17.772 1.444 1.121.137.175.22.38.271.532.04.194-.006.365-.052.537-.112.245-.2.405-.278.522l-.63-.215c.076-.117.134-.331.245-.577.023-.085.058-.214.027-.268a1.2 1.2 0 0 0-.146-.314c-.473-.632-1.655-1.362-3.568-2.104l-.62-.258-.455.842-.374-.146 1.808-4.52.374.146-.206.771 4.85 1.943.379-.725.373.146-.965 2.404-.374-.146.23-.857-4.851-1.942-.65 1.57.705.281c.97.489 1.792.847 2.463 1.257M47.235 116.701c.3-.608.64-1.022 1.106-1.219.466-.196.918-.167 1.451.068.566.289.968.672 1.099 1.212.142.498.078 1.077-.222 1.685-.023.086-.089.16-.112.246-.066.074-.089.16-.166.277a7 7 0 0 0-.39.768l-.458 1.025-.362-.189.226-.674-4.77-2.242-.386.585-.363-.189.994-2.167.362.189-.26.802 1.75.836zm0-5.83.363.189-.25.759 4.729 2.231.409-.671.362.189-1.06 2.241-.362-.189.25-.759-4.728-2.231-.41.671-.362-.189zm2.782 7.953c.066-.074.112-.246.2-.406.2-.405.219-.813.085-1.171-.134-.357-.43-.62-.88-.832-.404-.2-.813-.218-1.116-.116-.314.146-.566.4-.766.805l-.347.779 2.572 1.195c.109-.063.186-.18.252-.254M49.516 107.672l-.418.53-.362-.189 1.13-1.992.363.189-.27.662 2.005 1.088 1.431-2.6-2.004-1.088-.418.531-.362-.189 1.076-1.961.363.189-.215.631 4.593 2.562.417-.531.363.189-1.088 2.004-.362-.189.269-.663-2.164-1.176-1.431 2.6 2.163 1.177.441-.617.363.189-1.142 2.036-.363-.189.258-.62zM53.313 100.012l.487-.788 6.022 1.339.34-.414.352.232-1.194 1.883-.35-.231.312-.651-1.285-.345-1.294 2.087.833 1.004.472-.563.35.232-1.05 1.693-.35-.232.223-.491zm1.394.282-.728-.195.539.557 1.857 2.151 1.127-1.81zM57.624 94.373l-.603.71-.351-.231 1.31-1.807 3.755 1.236 1.036.415-.738-.84-2.41-3.171 1.31-1.807.351.232-.444.8 4.66 2.487.514-.55.351.231-1.453 1.998-.351-.232.366-.682-3.303-1.895-1.438-.799.79.992 2.766 3.726-.309.468-4.078-1.23-1.604-.522 1.23 1.064 2.873 2.469.538-.637.35.232-1.255 1.775-.351-.232.355-.64z"/><path d="m62.901 86.33.561-.722 5.84 2.023.37-.359.34.275-1.384 1.74-.34-.274.387-.585-1.208-.462-1.528 1.932.725 1.067.503-.508.34.275-1.242 1.549-.34-.275.267-.48zm1.36.41-.706-.28.474.631 1.574 2.35 1.319-1.667zM66.301 83.063l-.523.411-.34-.275.736-.859c.131-.148.263-.296.352-.456.197-.223.352-.457.549-.68.526-.593 1.038-.96 1.47-1.029.43-.068.89.101 1.335.496a2.05 2.05 0 0 1 .706 2.163c-.103.386-.303.791-.62 1.12-.12.105-.21.265-.33.37q-.18.159-.197.223l1.421 1.207.81-.793.296.263-1.8 2.089-.296-.264.386-.585zm3.367.627c.275-.34.421-.714.384-1.09-.036-.378-.256-.758-.732-1.207-.371-.329-.702-.464-1.037-.415-.334.048-.617.247-1 .65-.132.148-.22.308-.352.456-.077.117-.132.149-.143.191l2.28 1.943c.151-.052.337-.231.6-.528M74.34 82.187c-.497.142-.99.102-1.505-.036a4.1 4.1 0 0 1-1.458-.896c-.434-.437-.77-.895-.944-1.446-.185-.509-.176-1.057-.081-1.583.138-.514.361-1.005.787-1.396a6.6 6.6 0 0 1 1.232-1l.23-.169 1.035 1.104-.383.402-.948-.575c-.097.02-.249.071-.412.165s-.349.274-.534.454a1.54 1.54 0 0 0-.424.896c-.05.354.042.7.207 1.111.177.37.482.772.884 1.156.36.371.796.626 1.202.826s.802.261 1.18.225c.376-.037.702-.225 1.008-.51.197-.223.34-.414.418-.531a.76.76 0 0 0 .114-.429l-.373-.834.415-.348.747.98q-.099.113-.266.48c-.1.203-.19.363-.278.522q-.133.24-.429.574c-.48.422-.97.705-1.423.858M79.33 68.88l.285.305-.538.636 2.83 3.146-.172-1.24-.173-3.81-.137-.175-.62.43-.286-.305 1.748-1.552.285.306-.418.53 3.495 3.92.566-.398.285.306-1.747 1.551-.285-.305.514-.551-2.86-3.2.195 1.154.15 3.897.21.24.632-.474.286.306-1.759 1.595-.285-.306.46-.52-3.494-3.92-.555.357-.285-.306zM83.694 65.274a9 9 0 0 1 .417-.53c.132-.15.252-.255.372-.36.535-.454 1.055-.682 1.486-.75s.794.121 1.11.481c.275.35.409.706.348 1.103a2.1 2.1 0 0 1-.47 1.068c.403-.305.815-.47 1.212-.41.408.018.728.195 1.002.544.38.47.521.966.438 1.449q-.125.724-1.09 1.498c-.24.211-.512.368-.729.494a3.2 3.2 0 0 1-.575.259c-.151.051-.248.071-.26.114l-.818-1.23.349-.273.87.692c.292-.06.66-.236 1.02-.553.295-.242.461-.52.444-.8-.005-.322-.107-.625-.424-.985-.2-.283-.477-.45-.788-.487q-.466-.055-1.072.402l-.468.38-.317-.361.36-.317c.175-.137.318-.328.418-.53.1-.203.158-.417.13-.655-.029-.237-.154-.454-.323-.683-.242-.294-.476-.449-.756-.432s-.54.13-.823.33c-.186.18-.318.329-.45.477a.41.41 0 0 0-.103.385l.365.695-.414.348-.888-.972c.11-.063.24-.211.427-.391M89.637 61.082l-.64.333-.23-.337.914-.673c.163-.094.349-.274.578-.442.185-.18.36-.317.468-.38q.948-.709 1.56-.683c.41.018.772.207 1.046.555.23.338.322.684.316 1.05-.007.365-.184.684-.447.981a1.8 1.8 0 0 1 1.266-.441c.408.018.76.25.99.587.337.457.436.943.341 1.468-.095.526-.555 1.045-1.307 1.624-.175.137-.338.231-.5.325-.38.22-.567.4-.664.42l-.915.672-.23-.337.491-.465zm2.436 1.02.391-.262c.338-.232.504-.508.53-.777.026-.268-.065-.614-.296-.951-.231-.338-.465-.492-.734-.518s-.625.108-.974.381c-.175.137-.338.231-.47.38l-.12.105 1.378 1.884c-.043-.011.12-.105.295-.242m2.157 2.23c.457-.336.732-.676.78-1.03q.075-.531-.272-1.037c-.274-.349-.54-.558-.808-.584-.311-.037-.626.108-1.029.413-.457.337-.74.536-.86.642l1.471 2.047c.097-.02.326-.188.718-.45M95.298 56.401l.784-.525 4.928 3.708.478-.239.231.337-1.85 1.25-.231-.338.535-.454-1.02-.824-2.066 1.375.356 1.243.64-.334.23.338-1.674 1.112-.231-.338.371-.359zm1.202.827-.605-.483.256.757.782 2.734 1.784-1.174zM102.768 58.678c-.505.003-.965-.167-1.445-.433q-.638-.445-1.172-1.278a3.9 3.9 0 0 1-.532-1.612c-.046-.517.104-1.074.358-1.51.267-.48.638-.84 1.139-1.164.38-.22.846-.416 1.452-.621l.26-.114.698 1.334-.489.283-.75-.798c-.086-.023-.237.028-.432.068-.194.04-.411.165-.628.29a1.54 1.54 0 0 0-.658.742 2 2 0 0 0-.116 1.117c.068.431.265.897.558 1.343s.599.85.939 1.124q.509.412 1.087.567c.386.103.732.012 1.112-.207q.407-.235.523-.411a.85.85 0 0 0 .243-.394l-.124-.906.477-.239.433 1.126c-.109.063-.229.168-.372.36a3.3 3.3 0 0 1-.437.433c-.132.148-.349.274-.566.4a2.64 2.64 0 0 1-1.558.5M107.163 50.674c.04-.494.167-.965.41-1.36.243-.393.549-.679.984-.93a2.5 2.5 0 0 1 1.425-.352c.452.03.911.198 1.282.527q.556.494 1.044 1.244a3.96 3.96 0 0 1 .541 1.752c.034.56-.05 1.042-.305 1.479a2.7 2.7 0 0 1-1.006 1.016 2.46 2.46 0 0 1-1.469.34 2.45 2.45 0 0 1-1.293-.484 3.6 3.6 0 0 1-1.044-1.243l-1.184.647 1.169 2.149.672-.28.176.37-2.041 1.105-.176-.368.566-.4-2.483-4.613-.66.236-.219-.38 1.986-1.074.22.38-.566.4 1.074 1.986 1.226-.636a3.15 3.15 0 0 1-.329-1.511m.795-.568c-.064.58.118 1.272.588 2.086.408.706.819 1.23 1.341 1.507.522.278.974.307 1.505.036.478-.24.732-.676.742-1.224.009-.549-.173-1.24-.601-2.043-.407-.706-.818-1.23-1.297-1.496-.48-.266-.974-.307-1.451-.067s-.764.621-.827 1.201M116.503 48.54c.319.177.713.42 1.236.698.351.232.585.387.788.487.202.1.288.123.385.103l.334-.048.177.369-.943.435c-.109.063-.28.017-.526-.094-.245-.112-.553-.332-.979-.63-.456-.352-.85-.595-1.127-.761s-.503-.18-.654-.13l-.477.24 1.028 2.158.703-.225.177.369-2.104.997-.176-.369.597-.345-2.222-4.727-.649.194-.177-.37 2.05-.965.176.369-.609.387 1.017 2.201.641-.333.512-2.94-.703.226-.177-.369 1.886-.872.177.369-.555.356-.62 3.002c.183.003.483.083.814.218M120.652 49.33c-.482-.083-.876-.326-1.236-.698a4.4 4.4 0 0 1-.944-1.447c-.247-.617-.378-1.157-.326-1.694s.178-1.008.476-1.433c.297-.426.701-.73 1.166-.927.823-.33 1.512-.33 2.163-.018s1.167.956 1.529 1.833c.247.617.367 1.2.315 1.737s-.19 1.051-.488 1.476c-.297.426-.7.73-1.166.927-.532.271-1.006.328-1.489.244m-1.623-4.566c-.106.568.033 1.248.352 2.114.342.78.741 1.346 1.209 1.655.457.352.951.393 1.471.165.509-.185.806-.61.913-1.179.106-.568-.021-1.291-.395-2.125-.342-.78-.741-1.347-1.209-1.656s-.951-.392-1.471-.164c-.477.239-.763.621-.87 1.19M123.969 42.093l-.68.139-.123-.4 1.072-.402c.194-.04.412-.165.672-.279s.423-.208.563-.216c.714-.268 1.285-.344 1.671-.24.385.102.682.365.836.82.134.357.17.734.036 1.065-.135.332-.355.64-.681.828.509-.185.929-.21 1.314-.107.386.103.671.41.825.864.185.508.175 1.057-.079 1.493q-.4.72-1.699 1.198a3 3 0 0 1-.551.174c-.4.122-.66.236-.757.256l-1.072.401-.134-.357.64-.333zm2.08 1.659.454-.154q.537-.2.721-.633c.123-.288.118-.611-.059-.98-.134-.357-.345-.597-.59-.709-.246-.112-.623-.075-1.077.079-.206.082-.369.176-.575.259l-.163.094.835 2.198q.082-.048.454-.154m1.428 2.724c.509-.185.857-.459 1.035-.779s.172-.642.018-1.097c-.165-.411-.376-.651-.621-.763q-.433-.184-1.132.11c-.551.174-.866.319-1.017.37l.885 2.35c.118.077.42-.026.832-.191M136.375 37.429l.122.4-.64.333 1.508 4.995.777-.159.122.4-2.249.683-.122-.4.629-.29-1.54-5.05-2.594.774 1.539 5.05.777-.16.123.4-2.249.683-.123-.4.629-.29-1.508-4.995-.723.127-.122-.4zM139.89 42.64a2.5 2.5 0 0 1-1.147-.858q-.457-.604-.684-1.56c-.15-.637-.184-1.197-.078-1.766.095-.525.35-.962.679-1.333q.493-.555 1.303-.752c.843-.233 1.552-.136 2.168.305.574.43.993 1.093 1.234 2.075.151.638.173 1.24.078 1.766a2.46 2.46 0 0 1-.733 1.364q-.557.54-1.303.753c-.594.162-1.057.176-1.517.007m-.963-4.802c-.192.545-.15 1.245.072 2.13.191.832.536 1.43.938 1.813s.916.52 1.413.379c.54-.131.858-.46 1.061-1.047.192-.546.162-1.288-.06-2.174-.19-.832-.535-1.43-.938-1.812q-.603-.575-1.413-.38c-.52.229-.892.588-1.073 1.09M146.167 39.089c.062.797-.001 1.377-.17 1.836a1.1 1.1 0 0 1-.321.511c-.12.106-.283.2-.477.24-.249.07-.474.056-.572.076l-.193-.649c.14-.008.334-.048.626-.107.097-.02.194-.04.26-.114a.64.64 0 0 0 .166-.277c.292-.748.196-2.105-.221-4.145l-.151-.637-.991.101-.079-.388 4.76-.974.079.388-.757.256 1.053 5.149.852-.093.079.388-2.525.517-.08-.388.854-.276-1.053-5.149-1.652.338.171.734c.144 1.003.269 1.909.342 2.663M150.5 34.74h-.688l-.068-.431 4.228-.704.344 1.286-.474.057-.385-.792-2.048.277.38 2.352 1.403-.267v-.688l.475-.057.312 1.92-.475.056-.225-.703-1.391.224.388 2.492 2.332-.477.255-1.125.526.094.018 1.474-4.605.74-.08-.388.692-.182zM157.446 33.664l-1.435.212-.062 1.774-.571.076-.134-2.24 5.216-.621.372 2.21-.517.046-.498-1.74-1.454.115.653 5.271 1.206-.044.025.42-3.18.387-.025-.42 1.069-.218zM164.333 36.06l-.42.025c-.12.106-.264.297-.375.542-.123.289-.258.62-.373 1.048-.157.417-.238.717-.338.92-.1.202-.177.32-.275.34l-1.131.11-.025-.42.303-.103c.097-.02.163-.094.251-.254q.133-.24.336-.736c.146-.374.323-.694.435-.94.154-.234.297-.425.46-.52a1.5 1.5 0 0 1-.959-.532 1.8 1.8 0 0 1-.401-1.071c-.054-.657.127-1.16.476-1.434.403-.305.954-.478 1.697-.509.14-.008.377-.037.646-.01.28-.017.462-.014.602-.023l1.217-.087.026.42-.68.14.408 5.159.774.023.025.42-2.488.206-.026-.42.82-.148-.177-2.25zm.343-3.167c-.268-.026-.462.013-.688-.001-.42.025-.777.159-.963.338q-.36.317-.276 1.029c.014.462.202.788.413 1.028q.398.314 1.028.276c.463-.014.755-.074.895-.082l-.183-2.574zM169.51 32.673l-1.455.115-.244 1.77-.56.034.059-2.28 5.242-.201.178 2.25-.506.003-.358-1.749-1.474.019.18 5.327 1.182.042.025.42-3.196.107-.025-.42 1.088-.121zM176.647 38.074a2.95 2.95 0 0 1-.981-1.135c-.24-.477-.316-1.049-.327-1.694q.048-.951.448-1.67.4-.72 1.115-1.08c.478-.239.975-.38 1.566-.36.408.017.945.07 1.545.23l.257.069-.133 1.525-.549-.009-.175-1.057a1 1 0 0 0-.406-.2c-.214-.058-.44-.072-.708-.099a1.54 1.54 0 0 0-.952.296c-.283.2-.503.508-.692.87a4.3 4.3 0 0 0-.293 1.437q-.014.823.17 1.423c.122.4.341.78.638 1.043.297.264.628.398 1.037.416.322-.005.505-.002.7-.042.151-.051.302-.103.423-.208l.358-.822.525.094-.224 1.18c-.14.008-.292.06-.529.088-.194.04-.4.122-.583.12-.194.039-.419.024-.699.041-.592-.02-1.106-.158-1.531-.456M183.681 32.384l-.018.408-.84.05-.308 4.234.77-.988 2.628-2.785.015-.225-.74-.153.018-.408 2.299.157-.017.409-.658.053-.346 5.233.697.14-.018.409-2.342-.169.018-.408.743-.03.276-4.288-.704.913-2.682 2.817-.038.31.794.122-.018.408-2.384-.18.017-.408.7-.042.346-5.233-.654-.13.018-.408zM192.821 33.226l-.177 2.202-.58-.063-.046-1.711-1.857-.268-.595 5.304 1.448.25-.06.397-3.296-.378.06-.397.915.015.56-5.175-.857-.23.061-.397zM194.239 33.928l-.631-.215.061-.397 2.253.328-.06.397-.731-.012-.329 2.253 2.908.458.328-2.254-.674-.226.061-.397 2.253.328-.061.397h-.688l-.786 5.16.643.172-.061.397-2.253-.328.06-.397h.689l.374-2.424-2.908-.457-.374 2.424.728.195-.06.397-2.296-.34.06-.397.689.001zM202.722 34.823l.911.199.844 6.102.503.18-.061.398-2.176-.446.06-.397.72.055-.15-1.325-2.39-.503-.633 1.162.674.226-.06.397-1.962-.388.06-.397.549.01zm.267 1.403-.073-.754-.324.694-1.354 2.483 2.09.423zM207.54 39.97c-.28.706-.612 1.26-.93 1.588-.186.18-.349.273-.5.325q-.227.077-.549-.01c-.257-.068-.471-.126-.588-.203l.087-.666.599.161a.6.6 0 0 0 .28-.017c.097-.02.163-.094.283-.2.558-.538 1.128-1.809 1.625-3.834l.172-.642-.9-.241.115-.428 4.735 1.177-.115.428-.806-.078-1.268 5.077.791.304-.104.385-2.538-.634.103-.386.88.144 1.268-5.077-1.682-.405-.195.728a16.4 16.4 0 0 1-.763 2.505M214.785 40.35c.631.216 1.099.525 1.361.916.262.392.307.909.115 1.454q-.322.947-1.021 1.242c-.52.228-1.068.218-1.711.046l-.257-.069a.9.9 0 0 1-.288-.123c-.289-.123-.589-.203-.834-.315l-1.102-.341.103-.386.697.141 1.525-5.008-.608-.301.104-.386 2.29.706-.104.385-.836-.132-.591 1.862zm-1.729 3.026c.085.023.245.112.416.158.472.126.837.132 1.163-.056s.546-.496.673-.967c.126-.471.12-.794-.068-1.12q-.235-.408-.924-.661l-.814-.218-.82 2.718c.171.046.288.123.374.146m7.497-3.821-.104.385-.794-.12-1.525 5.008.736.335-.103.386-2.376-.729.104-.385.782.163 1.526-5.008-.737-.335.104-.386zM224.018 41.356l-.596-.344.146-.374 2.127.8-.146.374-.697-.14-.8 2.126 2.79 1.069.799-2.127-.596-.344.146-.374 2.127.8-.146.374-.654-.13-1.868 4.917.608.3-.146.375-2.128-.8.147-.374.685.184.888-2.287-2.789-1.069-.889 2.287.64.355-.146.374-2.159-.854.146-.374.686.184zM232.127 43.988l.865.37-.458 6.166.425.298-.146.374-2.05-.917.146-.374.674.227.173-1.331-2.264-.974-.856.964.64.355-.146.374-1.847-.816.146-.374.514.138zm-.024 1.462.109-.75-.483.604-1.854 2.12 1.976.851zM238.307 47.48l-.776-.53.189-.362 1.973 1.034-.679 3.904-.244 1.082.723-.816 2.78-2.836 1.973 1.033-.189.363-.877-.327-1.825 4.929.616.44-.189.363-2.132-1.123.189-.362.705.28 1.404-3.526.596-1.538-.887.91-3.26 3.258-.48-.266.674-4.227.296-1.62-.873 1.374-2.055 3.213.703.464-.189.363-1.93-1.022.189-.363.662.27z"/><path d="m247.038 51.564.788.486-1.167 6.07.425.297-.189.362-1.907-1.108.189-.362.662.27.29-1.254-2.098-1.251-.972.887.574.43-.189.362-1.704-1.008.189-.362.502.18zm-.196 1.416.195-.728-.558.54-2.119 1.91 1.864 1.097zM250.764 54.445l-.476-.45.232-.35.936.618c.16.089.351.232.511.32.277.166.522.278.756.433.66.452 1.093.89 1.204 1.332s.028.926-.281 1.394a2.06 2.06 0 0 1-.907.813 1.9 1.9 0 0 1-1.143.153 3.3 3.3 0 0 1-1.207-.462 2.2 2.2 0 0 1-.426-.297c-.16-.089-.234-.155-.265-.21l-1.016 1.565.913.704-.232.35-2.309-1.49.232-.351.651.312zm-.144 3.45c.394.243.737.335 1.126.256s.737-.354 1.069-.907c.243-.394.347-.78.244-1.083s-.345-.597-.77-.895c-.16-.088-.32-.177-.523-.277-.117-.078-.202-.1-.202-.1l-1.634 2.5c.148.131.339.274.69.506M252.752 62.277a2.64 2.64 0 0 1-.158-1.466c.083-.483.33-1.06.704-1.602.364-.499.79-.89 1.267-1.13a2.8 2.8 0 0 1 1.543-.274c.537.052 1.04.232 1.496.584.351.232.754.615 1.144 1.041l.223.198-.956 1.167-.468-.31.447-.981c-.02-.097-.125-.218-.219-.38-.094-.163-.328-.318-.562-.473-.309-.22-.609-.3-.974-.306-.366-.006-.723.127-1.06.358s-.709.59-1.007 1.016a5.8 5.8 0 0 0-.667 1.29c-.115.429-.175.826-.053 1.226s.322.683.673.915c.234.154.425.297.597.343s.299.08.439.072l.772-.482.403.383-.876.868c-.117-.078-.288-.123-.491-.224-.214-.057-.374-.146-.588-.203-.16-.089-.362-.19-.596-.344-.446-.394-.836-.82-1.033-1.286M265.038 64.054l-.274.34-.702-.464-2.669 3.279 1.2-.367 3.734-.744.143-.191-.496-.546.274-.34 1.804 1.493-.275.34-.596-.344-3.339 4.064.508.503-.263.297-1.804-1.493.264-.297.628.398 2.723-3.31-1.103.347-3.832.763-.197.223.539.558-.263.296-1.846-1.504.263-.297.585.386 3.338-4.063-.465-.492.275-.34zM269.311 67.815c.245.112.393.244.553.332.16.09.309.22.426.298.519.46.855.918.966 1.36a1.16 1.16 0 0 1-.31 1.157c-.317.328-.643.516-1.051.499a1.7 1.7 0 0 1-1.114-.299c.359.372.579.752.616 1.13.036.377-.11.75-.373 1.047-.395.445-.872.685-1.366.644-.506.003-1.028-.275-1.665-.813-.265-.209-.433-.437-.601-.666-.169-.229-.263-.392-.368-.512l-.157-.272 1.092-.992.297.263-.532.959c.102.303.344.597.673.915.296.263.542.375.876.327a1.48 1.48 0 0 0 .881-.545c.251-.254.332-.554.369-.865.038-.311-.193-.649-.564-.978l-.445-.394.317-.328.371.329c.191.143.382.286.597.343s.439.072.688 0c.249-.07.423-.207.62-.43.263-.296.375-.542.316-.834-.017-.28-.186-.508-.482-.771a1.8 1.8 0 0 0-.543-.375.56.56 0 0 0-.397-.06l-.631.473-.414-.34.824-1.02c.137.175.296.264.531.418M274.331 73.063l-.399-.566.306-.285.793.809c.149.132.328.317.551.515l.445.394c.539.558.876 1.016.901 1.435.079.39-.067.763-.384 1.091-.306.285-.62.43-.955.479s-.719-.055-1.071-.287c.403.383.622.764.647 1.183s-.109.751-.426 1.08a1.72 1.72 0 0 1-1.387.546q-.805-.078-1.789-1.03c-.149-.132-.286-.306-.391-.426a12 12 0 0 0-.539-.558l-.793-.81.306-.284.573.429zm-2.494 5.024c.403.384.754.615 1.119.622.366.006.68-.14.986-.425s.441-.616.424-.896q-.025-.42-.564-.978a16 16 0 0 1-.762-.755l-1.762 1.778c.02.097.243.294.559.654m1.903-2.474.328.317c.297.264.574.43.854.413.279-.017.594-.162.857-.459s.418-.53.401-.81-.205-.607-.533-.924c-.149-.132-.297-.263-.488-.406l-.148-.132-1.642 1.672c.086.023.191.143.371.33M279.876 77.9l.644.678-2.877 5.426.294.446-.306.286-1.489-1.639.306-.285.519.46.675-1.15-1.668-1.825-1.204.55.442.578-.306.285-1.352-1.464.306-.285.414.34zm-.668 1.29.41-.67-.695.364-2.569 1.194 1.458 1.584zM278.724 85.626c-.088-.53-.005-1.012.219-1.503.223-.49.575-.947 1.098-1.358a3.5 3.5 0 0 1 1.541-.781 2.72 2.72 0 0 1 1.579.102c.503.18.928.478 1.307.947.274.349.568.795.839 1.326l.114.26-1.21.916-.348-.415.692-.87c-.019-.097-.028-.237-.122-.4s-.219-.38-.399-.566a1.6 1.6 0 0 0-.862-.553c-.343-.091-.72-.055-1.12.068-.4.122-.834.373-1.249.72a5 5 0 0 0-.975 1.07c-.244.395-.347.78-.353 1.146q-.009.548.401 1.072c.211.24.36.371.52.46s.277.166.417.158l.854-.276.294.446-1.044.638a6 6 0 0 0-.414-.34 2.2 2.2 0 0 1-.499-.364c-.148-.131-.34-.274-.508-.503a2.33 2.33 0 0 1-.772-1.4M287.298 88.75c.517-.046.957.026 1.374.184.417.157.788.486 1.061.835.337.457.502.869.559 1.343.013.463-.058.903-.313 1.34-.255.436-.595.85-1.107 1.218-.523.41-1.098.67-1.638.8-.54.131-1.034.09-1.537-.09s-.842-.455-1.147-.858q-.505-.686-.589-1.398c-.057-.474.058-.902.27-1.35.254-.437.595-.85 1.064-1.23l-.81-1.09-1.961 1.495.376.652-.338.23-1.388-1.84.337-.232.508.504 4.151-3.157-.345-.598.349-.274 1.358 1.787-.349.274-.508-.503-1.787 1.357.81 1.09a9 9 0 0 1 1.6-.49m.731.7c-.56.034-1.232.313-1.984.892-.643.516-1.092.992-1.284 1.538-.192.545-.136 1.02.201 1.477.348.414.753.615 1.324.538.56-.033 1.201-.367 1.941-.903.643-.516 1.092-.993 1.285-1.538q.288-.818-.17-1.423c-.305-.403-.754-.615-1.313-.581M290.881 97.651c-.092.343-.304.791-.538 1.325-.189.363-.27.662-.358.822-.046.172-.092.343-.061.397l.103.303-.338.231-.599-.849c-.062-.108-.059-.291.052-.537.112-.245.258-.62.47-1.068.278-.522.436-.939.559-1.227a.93.93 0 0 0 .043-.677l-.293-.446-1.97 1.354.322.684-.337.23-1.281-1.903.338-.232.453.535 4.32-2.928-.291-.629.338-.231 1.248 1.85-.337.23-.453-.534-2.013 1.343.388.609 2.968.06-.334-.64.337-.23 1.144 1.729-.338.23-.465-.491-3.042-.126c.083.205.057.474-.035.816M290.713 101.876c.029-.451.155-.923.495-1.336a3.9 3.9 0 0 1 1.267-1.13 3.56 3.56 0 0 1 1.623-.575c.56-.034 1.043.05 1.491.262s.819.54 1.102 1.029c.439.761.578 1.441.34 2.157q-.34 1.011-1.579 1.781a4 4 0 0 1-1.678.606 3.1 3.1 0 0 1-1.533-.273c-.448-.212-.808-.584-1.102-1.029a3.05 3.05 0 0 1-.426-1.492m4.299-2.337c-.549-.01-1.252.215-2.024.697-.717.451-1.209.916-1.444 1.45-.278.522-.221.996.061 1.485.294.446.731.701 1.279.71.591.021 1.251-.216 2.023-.697.718-.451 1.21-.916 1.445-1.45.223-.491.221-.997-.062-1.485-.293-.446-.687-.69-1.278-.71M298.389 104.07l-.237-.66.381-.219.564.977c.094.163.219.38.388.609.168.229.262.392.325.5.365.695.55 1.204.478 1.643s-.281.706-.673.968a1.7 1.7 0 0 1-1.068.219c-.354-.049-.674-.227-.948-.576.282.489.362.878.29 1.317-.061.397-.324.694-.704.914a1.74 1.74 0 0 1-1.508.146c-.503-.18-.968-.672-1.438-1.487-.094-.163-.177-.368-.271-.531-.219-.38-.333-.641-.365-.695l-.564-.977.369-.177.399.566zm-3.813 4.12c.282.489.568.795.91.887s.677.044 1.057-.176c.381-.219.589-.485.658-.742s-.01-.645-.261-1.08l-.533-.923-2.204 1.2c.04.194.154.454.373.834m2.516-1.85.208.423c.188.325.454.534.711.603.299.08.591.021.971-.199q.489-.282.592-.667t-.273-1.038c-.094-.163-.231-.337-.313-.543l-.095-.163-2.052 1.149zM304.95 115.561l-.369.177-.387-.609-4.696 2.277.256.757-.369.177-1.029-2.158.369-.177.388.609 4.739-2.265-1.186-2.429-4.75 2.308.256.757-.368.177-1.041-2.115.369-.177.357.554 4.695-2.276-.224-.703.368-.177zM300.306 119.872c.084-.483.327-.877.656-1.248a4.9 4.9 0 0 1 1.403-.955c.575-.259 1.158-.378 1.695-.326s1.008.178 1.433.475c.425.298.731.701.927 1.167.33.823.372 1.523.018 2.162-.313.651-.956 1.168-1.833 1.529-.618.248-1.2.367-1.737.315s-1.051-.19-1.477-.487c-.425-.298-.73-.701-.969-1.178-.143-.497-.231-1.026-.116-1.454m4.578-1.666c-.568-.106-1.248.033-2.125.395-.781.342-1.347.741-1.656 1.209s-.392.951-.164 1.471.61.806 1.178.912c.569.107 1.291-.021 2.126-.394.78-.342 1.346-.741 1.655-1.209s.35-.962.165-1.471c-.228-.52-.61-.806-1.179-.913M304.773 125.476c-.777.159-1.391.224-1.831.152-.214-.057-.429-.115-.534-.235a1.1 1.1 0 0 1-.337-.457 1.8 1.8 0 0 1-.162-.595l.629-.29c.008.14.091.346.205.606.02.097.094.163.168.228.074.066.16.089.289.123.782.164 2.142-.114 4.037-.846l.617-.248-.253-.94.412-.165 1.719 4.547-.411.165-.365-.695-4.904 1.854.202.789-.4.122-.906-2.446.401-.123.384.792 4.904-1.854-.586-1.58-.715.268c-.943.436-1.786.669-2.563.828M309.767 129.11l-.139-.68.4-.123 1.341 4.078-1.192.507-.154-.454.686-.505-.611-2-2.261.725.473 1.321.711-.085.154.454-1.86.604-.154-.455.64-.333-.418-1.352-2.369.789.823 2.24 1.171.084.002.506-1.477.201-1.474-4.435.4-.122.29.628zM311.924 135.794l-.461-1.364-1.8.207-.13-.54 2.191-.469 1.442 5.069-2.163.706-.142-.497 1.626-.758-.352-1.426-5.112 1.431.238 1.166-.4.122-.873-3.08.4-.123.37 1.018zM310.598 142.968l-.079-.389c-.106-.12-.32-.178-.62-.258-.299-.08-.654-.129-1.093-.201a9 9 0 0 1-.954-.21q-.321-.085-.351-.232l-.25-1.122.388-.08.146.314c.031.055.148.132.308.221.171.046.428.114.759.249l1.028.276c.246.111.449.211.597.343.018-.408.152-.74.361-1.005q.394-.446.978-.564c.637-.151 1.162-.056 1.49.261.329.318.599.849.77 1.584.051.151.079.388.108.625.016.28.056.475.107.626l.282 1.177-.4.123-.279-.672-5.098 1.205.116.766-.377.036-.594-2.408.389-.08.256.758 2.16-.523zm3.154-.12c-.028-.237-.056-.474-.096-.668-.111-.443-.268-.715-.49-.912-.223-.197-.589-.203-1.031-.093-.443.111-.769.3-.935.576-.166.277-.215.631-.104 1.074s.17.735.233.843l2.506-.614zM314.738 147.566l-.309-1.415-1.809.067-.088-.529 2.232-.274 1.01 5.137-2.203.512-.087-.529 1.677-.606-.213-1.435-5.222.988.141 1.186-.389.079-.624-3.151.388-.08.316 1.049zM310.519 155.433c.212-.448.552-.862.986-1.113.446-.294.998-.467 1.624-.575.614-.065 1.205-.044 1.696.179.503.181.916.521 1.264.936.348.414.533.923.61 1.494.068.432.07.937-.005 1.56l-.026.269-1.497.103-.076-.571 1.017-.37c.066-.074.112-.246.115-.428.003-.183.029-.452-.042-.7a1.57 1.57 0 0 0-.447-.901c-.254-.251-.574-.429-1.002-.544-.429-.114-.892-.101-1.451-.067-.529.088-.972.199-1.395.407s-.717.45-.938.759c-.22.308-.281.705-.244 1.082.06.291.088.528.182.691.051.152.157.272.262.392l.857.23-.009.548-1.225-.053a1.6 1.6 0 0 0-.186-.509c-.082-.205-.176-.368-.216-.563s-.122-.4-.139-.68c.009-.548.061-1.085.285-1.576M317.235 161.548l-.42.025-.19-.831-4.234.381 1.076.609 3.191 2.141.237-.029.024-.774.42-.025.209 2.306-.42.025-.151-.637-5.225.482-.012.731-.42.025-.197-2.348.42-.025.17.734 4.277-.369-1.045-.555-3.222-2.195-.28.017-.024.774-.42.025-.197-2.348.42-.025.139.68 5.225-.483.044-.677.42-.025zM317.812 170.701l-2.197.146-.033-.56 1.694-.326-.012-1.84-5.296.234-.025 1.462-.42.025-.17-3.305.42-.025.124.906 5.211-.257.058-.903.42-.025zM317.325 172.177l.087-.665.408.018-.017 2.29-.408-.017-.085-.712-2.248-.005-.018 2.979 2.248.006.087-.666.408.018-.005 2.248-.409-.018-.096-.668-5.239.019-.087.666-.408-.018.006-2.248.408.018.085.711 2.431.009.018-2.98-2.431-.008-.098.708-.409-.018-.026-2.302.409.018.096.668zM317.796 180.704l-.016.915-5.892 1.772-.095.526-.408-.018.091-2.225.408.017.042.7 1.286-.344.106-2.451-1.208-.461-.098.708-.408-.017.076-2 .409.018.045.517zm-1.375.504.734-.17-.759-.25-2.673-.991-.111 2.128zM313.452 186.289c-.771-.206-1.316-.398-1.699-.684-.191-.143-.339-.275-.391-.426-.094-.163-.091-.346-.088-.529.026-.269.029-.451.107-.568h.688c-.034.129-.049.355-.075.623q-.034.129.06.292c.02.097.094.162.211.24.605.483 1.987.808 4.006.981l.677.044.167-.965.409.017-.426 4.845-.409-.018-.019-.786-5.198-.474-.175.825-.409-.018.238-2.599.408.018-.004.871 5.199.475.136-1.708-.763-.067a23 23 0 0 1-2.65-.389M314.191 193.466c-.086.665-.321 1.199-.724 1.504-.361.317-.846.416-1.426.353-.623-.075-1.091-.384-1.384-.83-.294-.446-.371-1.018-.284-1.683a.56.56 0 0 0 .026-.269c-.02-.097.046-.171.08-.299.081-.3.118-.612.187-.869l.17-1.148.397.061-.012.731 5.215.755.226-.674.397.06-.363 2.382-.397-.06-.05-.84-1.942-.291zm-3.26-1.195a1.8 1.8 0 0 0-.072.439c-.084.483.007.829.25 1.123.242.295.562.472 1.056.513.44.072.828-.008 1.069-.219.283-.199.417-.531.501-1.013l.132-.837-2.833-.392zm4.93 6.784-.397-.061.024-.774-5.172-.743-.207.771-.397-.06.332-2.436.397.06-.024.774 5.172.743.207-.771.397.061zM314.595 202.756l.258-.62.385.103-.511 2.251-.386-.104.056-.72-2.208-.499-.64 2.904 2.207.5.258-.62.385.103-.499 2.208-.386-.103.044-.677-5.123-1.098-.215.631-.386-.103.5-2.207.385.103-.043.677 2.39.503.64-2.905-2.39-.502-.238.716-.385-.103.511-2.25.385.103-.043.677zM313.228 211.112l-.241.899-6.119.564-.223.491-.386-.103.531-2.153.386.103-.098.709 1.302-.065.589-2.367-1.108-.664-.269.662-.385-.103.473-1.939.386.103-.052.537zm-1.422.17.785-.02-.682-.366-2.406-1.471-.508 2.067zM310.738 217.836l.412-.853.374.146-.702 2.107-3.968-.099-1.085-.061.948.575 3.23 2.335-.702 2.107-.374-.146.198-.911-5.189-1.023-.312.651-.374-.147.76-2.321.374.146-.152.74 3.718.858 1.607.339-1.041-.738-3.719-2.741.181-.502 4.27-.004 1.688.039-1.516-.681-3.491-1.533-.347.78-.374-.146.691-2.065.374.146-.141.697z"/><path d="m308.064 227.128-.326.876-6.139-.221-.254.436-.374-.146.83-2.073.374.146-.183.686 1.311.076.888-2.287-1.019-.824-.355.639-.374-.146.731-1.87.374.146-.095.526zm-1.462-.025.762.067-.616-.441-2.186-1.779-.765 1.998zM305.78 231.198l.375-.542.374.146-.458 1.025c-.1.203-.146.374-.235.534-.123.288-.192.545-.304.791-.335.736-.687 1.193-1.11 1.401-.411.165-.874.179-1.451-.067-.405-.201-.713-.421-.944-.759-.231-.337-.322-.683-.347-1.103-.026-.419.089-.848.29-1.253.088-.16.123-.289.212-.448.088-.16.111-.246.166-.277l-1.688-.728-.544 1.002-.374-.146 1.129-2.498.374.146-.227.674zm-3.405.373c-.2.406-.207.771-.084 1.171s.462.675 1.038.921c.449.212.814.218 1.074.104.315-.145.535-.453.747-.901.089-.16.135-.332.192-.546l.069-.257-2.755-1.197c-.035.129-.146.374-.281.705M298.358 234.397a2.9 2.9 0 0 1 1.438-.395q.822.013 1.67.448c.565.289 1.022.641 1.316 1.087.336.457.479.954.524 1.471a2.76 2.76 0 0 1-.328 1.565c-.2.406-.498.831-.861 1.33l-.155.234-1.322-.721.224-.491 1.071.287c.097-.02.217-.126.348-.274.132-.148.232-.351.387-.585.177-.32.215-.631.135-1.02-.048-.334-.236-.66-.51-1.009-.285-.306-.668-.592-1.19-.869-.491-.224-.951-.393-1.39-.465-.44-.072-.86-.047-1.229.13-.357.134-.609.388-.809.793-.123.289-.224.491-.227.674a.75.75 0 0 0 .014.463l.602.666-.298.425-.999-.726.138-.514c.058-.215.061-.397.118-.612.046-.171.158-.416.269-.662.278-.522.618-.936 1.064-1.23M298.526 246.792l-.351-.232.346-.78-3.654-2.126.53 1.106 1.327 3.615.203.1.483-.605.351.232-1.173 1.981-.351-.232.258-.62-4.528-2.636-.429.574-.362-.189 1.185-2.024.362.189-.323.694 3.685 2.181-.553-1.021-1.316-3.657-.276-.166-.495.647-.363-.189 1.197-2.066.362.189-.269.662 4.527 2.636.418-.531.351.232zM295.498 251.581c-.111.246-.169.46-.258.62-.088.16-.177.319-.254.436-.387.586-.77.988-1.181 1.153s-.82.148-1.214-.096a1.39 1.39 0 0 1-.662-.957c-.079-.389-.03-.743.127-1.16-.297.425-.646.699-1.035.779-.388.079-.743.03-1.094-.202-.511-.32-.816-.723-.861-1.24-.056-.475.104-1.074.568-1.776.166-.277.363-.5.561-.722.186-.18.36-.317.48-.423s.186-.179.229-.168l1.136.901-.232.351-1.037-.415c-.271.157-.523.411-.82.836a1.12 1.12 0 0 0-.199.911c.06.291.314.543.708.786.277.166.577.247.911.198s.629-.29.872-.684l.32-.511.394.243-.243.394c-.143.191-.2.406-.258.62-.014.225.014.462.097.668.082.206.262.392.496.546.308.221.619.258.868.187s.489-.282.709-.59c.143-.192.243-.394.247-.577q.068-.256-.026-.42l-.582-.569.298-.425 1.119.621c-.026.268-.115.428-.184.685M291.086 257.423l.503-.508.351.232-.661.925c-.131.148-.231.351-.397.628-.155.234-.244.394-.321.511-.44.616-.867 1.007-1.267 1.129s-.797.062-1.136-.212c-.308-.221-.551-.515-.63-.904-.091-.345-.042-.7.104-1.074q-.447.638-1.047.822c-.388.079-.785.019-1.125-.256q-.685-.528-.753-1.303c-.045-.517.182-1.191.743-1.913.131-.149.22-.308.352-.457.274-.339.429-.573.483-.605l.661-.925.351.232-.343.597zm-5.371-1.714c-.352.456-.467.885-.461 1.207.005.323.236.661.587.892.34.275.682.367.974.307s.586-.302.872-.684c.352-.457.529-.777.606-.894l-2.04-1.465c-.055.032-.252.254-.538.637m2.729 1.465-.286.383q-.33.462-.241.899c.06.292.259.575.567.795.309.22.609.301.888.284.249-.071.532-.271.83-.696.131-.148.231-.351.32-.511l.089-.16-1.881-1.376c-.023.086-.143.191-.286.382M287.131 263.617l-.56.722-5.839-2.024-.372.36-.34-.275 1.385-1.741.339.275-.386.585 1.208.461 1.527-1.932-.724-1.066-.503.508-.34-.275 1.242-1.549.339.274-.266.48zm-1.39-.464.705.28-.473-.631-1.574-2.35-1.319 1.666zM279.31 263.679a2.8 2.8 0 0 1 1.517-.007c.514.138 1.025.459 1.513.865q.732.61 1.01 1.372.278.764.135 1.551c-.095.526-.361 1.005-.702 1.419-.274.34-.689.688-1.158 1.067l-.229.168-1.089-1.072.383-.402.959.532c.097-.02.249-.071.423-.208.163-.094.349-.274.503-.508.252-.254.387-.585.393-.95.049-.355-.042-.7-.262-1.081-.219-.38-.482-.771-.938-1.123-.414-.341-.796-.627-1.213-.784a2.6 2.6 0 0 0-1.191-.182q-.565.055-.978.565c-.197.222-.34.413-.386.585-.089.16-.08.3-.115.428l.385.792-.415.348-.759-.938q.099-.111.267-.48c.1-.202.189-.362.277-.522q.133-.24.43-.574a2.45 2.45 0 0 1 1.24-.861M277.546 272.663q.213.746.041 1.389c-.115.428-.315.833-.676 1.15-.383.402-.817.653-1.26.764s-.937.07-1.397-.099-.928-.478-1.373-.873c-.476-.449-.844-.96-1.018-1.512-.185-.508-.273-1.037-.147-1.508.084-.483.339-.92.667-1.291a3.1 3.1 0 0 1 1.273-.806 2.4 2.4 0 0 1 1.396.098c.46.169.928.479 1.373.873l.953-.984-1.789-1.719-.578.442-.285-.306 1.599-1.683.296.263-.429.573 3.758 3.624.523-.411.285.306-1.587 1.641-.285-.306.429-.574-1.641-1.587-.952.984c.442.578.681 1.055.824 1.552m-.53.777c-.131-.54-.518-1.149-1.175-1.784-.582-.569-1.178-.913-1.746-1.019s-1.066.036-1.449.438-.498.831-.368 1.371c.131.54.519 1.149 1.218 1.795.582.569 1.136.901 1.693 1.05s1.011-.004 1.394-.406c.383-.403.51-.874.433-1.445M269.31 277.527c-.354-.049-.825-.175-1.382-.325l-.9-.241q-.256-.069-.42.026l-.314.145-.285-.306.743-.719c.109-.063.26-.114.56-.034l1.157.31c.545.192.973.307 1.328.356.299.08.537.052.668-.096l.372-.36-1.638-1.77-.62.431-.285-.306 1.704-1.564.285.306-.46.52 3.56 3.846.566-.399.285.306-1.65 1.532-.285-.306.429-.574-1.637-1.77-.546.496.402 2.954.566-.399.285.306-1.53 1.426-.285-.305.418-.531-.337-3.029c-.077.117-.4.123-.754.074M265.127 278.059c.475-.057.957.027 1.394.281.491.224.893.607 1.316 1.087.422.481.692 1.012.823 1.552s.133 1.046-.036 1.506-.424.896-.838 1.244c-.655.559-1.358.784-2.066.686-.709-.098-1.368-.55-2.044-1.282a3.66 3.66 0 0 1-.824-1.552c-.131-.54-.133-1.046.048-1.548.138-.514.424-.897.838-1.245.449-.476.915-.673 1.389-.729m2.958 3.868c-.077-.571-.41-1.212-1.012-1.878-.559-.655-1.101-1.03-1.647-1.222-.545-.192-1.031-.092-1.445.256q-.622.522-.508 1.379.115.856 1.001 1.921c.559.654 1.101 1.029 1.647 1.221q.834.224 1.457-.298.621-.522.507-1.379M264.167 285.927l.597-.345.274.349-.872.685c-.163.094-.349.273-.546.496-.186.18-.36.317-.469.379-.632.474-1.109.713-1.529.738s-.783-.163-1.056-.512a1.56 1.56 0 0 1-.37-1.018 1.5 1.5 0 0 1 .403-.993q-.621.522-1.234.495c-.409-.017-.771-.206-1.045-.555-.336-.457-.479-.955-.384-1.48.095-.526.524-1.099 1.222-1.647.174-.137.337-.231.457-.336.349-.274.566-.4.632-.474l.872-.684.231.337-.503.508zm-4.681-3.09c-.457.336-.689.687-.738 1.041s.042.7.316 1.049c.273.349.55.515.862.552s.625-.107 1.028-.413c.458-.336.752-.579.83-.696l-1.538-1.972c-.171-.046-.4.122-.76.439m2.223 2.156-.349.274q-.442.363-.498.83c-.038.312.065.615.35.921.243.294.519.46.788.486.268.026.583-.119.986-.424.174-.137.306-.286.48-.422l.12-.106-1.431-1.853c-.152.052-.272.157-.446.294"/><circle cx="77.272" cy="74.997" r=".901"/><circle cx="259.587" cy="63.446" r=".901"/></g></svg>