<svg xmlns="http://www.w3.org/2000/svg" width="80" height="27" viewBox="0 0 80 27" fill="none"><path fill="#595653" d="M18.024 25.659h-.488q0-.008-.003-.016l-.013-.06-.04-.17-.04-.153-.004-.015-.047-.164-.017-.053-.034-.112-.02-.06-.037-.108-.02-.057-.049-.133-.01-.028-.086-.21-.043-.102-.028-.063-.072-.157q-.025-.057-.054-.111l-.02-.043-.075-.143-.034-.061-.049-.088-.037-.065-.086-.146q-.026-.045-.054-.088l-.05-.079-.07-.109-.045-.067-.049-.072-.049-.07-.047-.065c-.016-.02-.034-.048-.052-.071l-.048-.065-.1-.13-.046-.06-.06-.073-.046-.055-.063-.074-.044-.052-.067-.075-.039-.043a8 8 0 0 0-.251-.265l-.038-.037-.078-.077-.039-.037-.082-.078-.029-.026a7 7 0 0 0-.297-.26l-.028-.022-.094-.077-.031-.025-.099-.077-.017-.013a9 9 0 0 0-.341-.249l-.017-.011-.11-.074-.024-.016-.113-.073-.007-.004a8 8 0 0 0-.384-.23l-.005-.003-.125-.067-.018-.01a8 8 0 0 0-.678-.324l-.014-.006-.185-.076h1.223c.2 0 .361-.217.361-.486 0-.268-.162-.486-.36-.486h-.365l.074-.185c.345-.204.951-.637 1.553-1.434l.005-.006q.068-.09.134-.185l.009-.013q.065-.093.13-.194l.012-.018.061-.097q0-.001.003-.004l.063-.103.013-.022.053-.091.01-.017.06-.107.014-.025a6 6 0 0 0 .12-.227l.014-.027.045-.092.016-.033.055-.116.011-.025.045-.097.017-.04a7 7 0 0 0 .105-.25l.017-.044.042-.107.01-.027.048-.13.016-.046.036-.104q.008-.02.013-.04l.06-.183.034-.106.014-.047.054-.19.03-.112.014-.051.037-.151.01-.043.029-.122.012-.055.034-.16.007-.032.028-.14.01-.058q.014-.073.027-.145l.005-.03a16 16 0 0 0 .058-.374l.006-.044.023-.18.007-.058.017-.146.006-.052.018-.19q.001-.026.004-.054.008-.076.013-.154.001-.03.005-.057l.013-.2q0-.025.002-.046l.012-.23.007-.21v-.03l.004-.191v-.5800000000000001q-.001-.098-.004-.2v-.037l-.009-.235-.003-.062-.01-.2q0-.025-.003-.051l-.015-.245-.004-.057q-.008-.103-.017-.208-.001-.03-.004-.06l-.023-.255q-.002-.024-.005-.049a29 29 0 0 0-.062-.554q-.001-.016-.004-.032l-.031-.242-.01-.072-.04-.279C15.239-1.407 5.55.09 5.55.09l.31 1.983L0 7.941l.256 2.266 2.22 1.296q.15-.36.378-.677c1.432-1.566 4.21-2.795 5.006-3.05.16-.051.25-.077.25-.077-3.804 4.668-3.372 10.016-3.202 11.29-.177.033-.313.235-.313.481 0 .269.162.486.361.486h1.223c-2.034.808-3.65 2.346-4.492 4.278l-.003.008a8 8 0 0 0-.216.561l-.015.045-.034.11-.018.056-.032.105-.018.065a4 4 0 0 0-.047.172l-.025.097-.023.1-.025.111H.743a.74.74 0 0 0-.508.19.638.638 0 0 0 0 .955.7.7 0 0 0 .508.19H18.03a.74.74 0 0 0 .508-.19.637.637 0 0 0 0-.955.7.7 0 0 0-.508-.19zM38.274 25.659h-.488q0-.008-.003-.016l-.014-.06-.027-.116-.013-.054-.04-.153-.004-.015-.047-.164-.016-.053-.034-.112-.02-.06-.037-.108-.02-.057-.05-.133-.01-.028-.062-.155-.023-.055-.043-.102-.028-.063-.072-.157q-.026-.057-.054-.111l-.02-.043-.075-.143-.035-.061-.048-.088-.037-.065-.048-.081-.038-.065q-.026-.045-.054-.088l-.05-.079-.07-.109-.045-.067-.049-.072-.049-.07-.047-.065c-.017-.02-.035-.048-.052-.071l-.048-.065q-.05-.064-.1-.13l-.046-.06-.06-.073-.046-.055-.063-.074-.044-.052-.067-.075-.04-.043a8 8 0 0 0-.25-.265l-.038-.037-.079-.077-.038-.037-.083-.078-.028-.026a7 7 0 0 0-.297-.26l-.028-.022-.094-.077-.032-.025-.098-.077-.017-.013a9 9 0 0 0-.342-.249l-.016-.011-.11-.074-.024-.016q-.057-.038-.114-.073l-.006-.004a8 8 0 0 0-.385-.23l-.005-.003-.124-.067-.018-.01a8 8 0 0 0-.678-.324l-.014-.006-.185-.076h1.223c.2 0 .36-.217.36-.486 0-.268-.16-.486-.36-.486h-.364l.074-.185c.345-.204.951-.637 1.553-1.434l.004-.006q.068-.09.135-.185l.008-.013q.066-.093.131-.194l.012-.018.061-.097q0-.001.003-.004l.063-.103.013-.022a6 6 0 0 0 .123-.215l.014-.025a6 6 0 0 0 .12-.227l.013-.027.046-.092.016-.033.055-.116.011-.025.044-.097.018-.04a6 6 0 0 0 .105-.25l.017-.044.042-.107.01-.027.047-.13.017-.046a7 7 0 0 0 .108-.327l.035-.106.013-.047.054-.19.03-.112.014-.051.038-.151.01-.043.029-.122.012-.055a10 10 0 0 0 .068-.332l.011-.058q.014-.073.026-.145l.006-.03.028-.173.009-.059.02-.142.007-.044.023-.18.007-.058.022-.198.019-.19q.001-.026.004-.054l.013-.154q.001-.03.004-.057l.014-.2q0-.025.002-.046l.008-.168q0-.03.003-.062l.008-.21v-.03l.004-.191v-.5800000000000001q-.001-.098-.005-.2v-.037l-.008-.235-.003-.062-.01-.2q0-.025-.003-.051l-.016-.245-.004-.057-.016-.208q-.001-.03-.005-.06l-.023-.255q-.001-.024-.005-.049l-.022-.22-.008-.067-.03-.267q-.002-.016-.005-.032l-.031-.242-.01-.072-.04-.279C35.488-1.407 25.8.09 25.8.09l.31 1.983-5.86 5.869.257 2.266 2.22 1.296q.148-.36.378-.677c1.432-1.566 4.21-2.795 5.006-3.05.16-.051.25-.077.25-.077-3.805 4.668-3.372 10.016-3.202 11.29-.177.033-.313.235-.313.481 0 .269.162.486.36.486h1.224c-2.034.808-3.65 2.346-4.492 4.278l-.004.008a8 8 0 0 0-.23.606l-.034.11q-.01.027-.018.056l-.032.105-.018.065-.028.1-.02.072-.024.097-.023.1-.025.111h-.488a.74.74 0 0 0-.508.19.638.638 0 0 0 0 .955.7.7 0 0 0 .508.19H38.28a.74.74 0 0 0 .508-.19.67.67 0 0 0 .212-.477.64.64 0 0 0-.212-.477.738.738 0 0 0-.508-.19zM58.524 25.659h-.487q-.001-.008-.004-.016l-.013-.06-.04-.17-.04-.153-.004-.015-.047-.164-.017-.053q-.016-.056-.034-.112l-.02-.06-.037-.108-.02-.057-.049-.133-.01-.028-.062-.155-.023-.055-.044-.102-.027-.063-.073-.157q-.025-.057-.053-.111-.011-.02-.021-.043l-.075-.143-.034-.061-.048-.088-.038-.065-.086-.146q-.025-.045-.054-.088l-.049-.079-.07-.109-.046-.067-.048-.072q-.026-.035-.05-.07l-.047-.065c-.016-.02-.034-.048-.052-.071l-.048-.065-.099-.13-.047-.06-.06-.073-.045-.055-.064-.074-.044-.052-.066-.075-.04-.043a8 8 0 0 0-.25-.265l-.038-.037-.08-.077-.038-.037-.082-.078-.029-.026a7 7 0 0 0-.297-.26l-.028-.022-.094-.077-.031-.025-.099-.077-.017-.013a9 9 0 0 0-.341-.249l-.016-.011-.11-.074-.025-.016q-.056-.038-.113-.073l-.007-.004a8 8 0 0 0-.384-.23l-.005-.003-.124-.067-.019-.01a8 8 0 0 0-.678-.324l-.014-.006-.185-.076h1.223c.2 0 .361-.217.361-.486 0-.268-.161-.486-.36-.486h-.365q.035-.081.075-.185c.344-.204.95-.637 1.552-1.434l.005-.006q.068-.09.134-.185l.009-.013q.066-.093.13-.194l.012-.018.062-.097q0-.001.002-.004l.063-.103.013-.022a5 5 0 0 0 .124-.215l.013-.025a5 5 0 0 0 .12-.227l.014-.027.045-.092.017-.033.054-.116.012-.025.044-.097.017-.04a6 6 0 0 0 .105-.25l.017-.044.042-.107.01-.027.048-.13.016-.046a7 7 0 0 0 .109-.327l.034-.106.014-.047a7 7 0 0 0 .098-.353l.038-.151.01-.043.028-.122.012-.055.035-.16.006-.032.028-.14.01-.058q.014-.073.027-.145l.005-.03q.016-.087.028-.173l.01-.059.02-.142.006-.044.024-.18.007-.058.022-.198.018-.19q.001-.026.005-.054l.012-.154q.001-.03.005-.057l.013-.2q0-.025.002-.046l.009-.168q0-.03.003-.062l.007-.21v-.03l.004-.191v-.5800000000000001q0-.098-.004-.2v-.037l-.009-.235-.002-.062-.01-.2q0-.025-.003-.051l-.016-.245-.004-.057-.016-.208q-.001-.03-.005-.06l-.023-.255q-.002-.024-.005-.049l-.023-.22-.008-.067-.03-.267q-.001-.016-.005-.032l-.03-.242-.01-.072-.04-.279C55.738-1.407 46.049.09 46.049.09l.31 1.983L40.5 7.941l.256 2.266 2.22 1.296q.149-.36.379-.677c1.432-1.566 4.21-2.795 5.006-3.05.159-.051.25-.077.25-.077-3.805 4.668-3.372 10.016-3.203 11.29-.176.033-.313.235-.313.481 0 .269.162.486.361.486h1.224c-2.035.808-3.65 2.346-4.493 4.278l-.003.008a8 8 0 0 0-.23.606l-.035.11-.018.056-.032.105-.018.065a4 4 0 0 0-.047.172l-.024.097-.023.1-.026.111h-.487a.74.74 0 0 0-.508.19.638.638 0 0 0 0 .955.7.7 0 0 0 .508.19H58.53a.74.74 0 0 0 .508-.19.637.637 0 0 0 0-.955.7.7 0 0 0-.508-.19zM78.774 25.659h-.487q-.001-.008-.004-.016l-.013-.06-.04-.17-.04-.153-.004-.015-.048-.164-.016-.053-.034-.112-.02-.06-.037-.108-.02-.057-.049-.133-.01-.028-.086-.21-.043-.102-.028-.063-.072-.157q-.026-.057-.054-.111l-.02-.043-.075-.143-.034-.061-.049-.088-.037-.065-.086-.146q-.026-.045-.054-.088l-.05-.079-.07-.109-.045-.067-.049-.072-.049-.07-.047-.065c-.016-.02-.034-.048-.052-.071l-.048-.065-.1-.13-.046-.06-.06-.073-.046-.055-.063-.074-.044-.052-.067-.075-.039-.043a8 8 0 0 0-.251-.265l-.038-.037-.078-.077-.039-.037-.082-.078-.029-.026a7 7 0 0 0-.297-.26l-.028-.022-.094-.077-.031-.025-.099-.077-.017-.013a9 9 0 0 0-.341-.249l-.017-.011-.11-.074-.024-.016-.113-.073-.007-.004a8 8 0 0 0-.384-.23l-.005-.003-.125-.067-.018-.01a8 8 0 0 0-.678-.324l-.014-.006-.185-.076h1.223c.2 0 .361-.217.361-.486 0-.268-.162-.486-.36-.486h-.365l.074-.185c.345-.204.951-.637 1.553-1.434l.005-.006q.068-.09.134-.185l.009-.013q.066-.093.13-.194l.012-.018.061-.097q0-.001.003-.004l.063-.103.013-.022.053-.091.01-.017.06-.107.014-.025a6 6 0 0 0 .12-.227l.014-.027.045-.092.016-.033.055-.116.011-.025.045-.097.017-.04a7 7 0 0 0 .105-.25l.017-.044.042-.107.01-.027.048-.13.016-.046.036-.104q.008-.02.013-.04l.06-.183.034-.106.014-.047.054-.19.03-.112.014-.051.037-.151.01-.043.029-.122.012-.055.034-.16.007-.032.028-.14.01-.058q.014-.073.026-.145l.006-.03a16 16 0 0 0 .058-.374l.006-.044.023-.18.007-.058.017-.146.005-.052.019-.19q.001-.026.004-.054.008-.076.013-.154.001-.03.004-.057a18 18 0 0 0 .025-.414q0-.03.002-.062l.008-.21v-.03l.004-.191v-.5800000000000001q-.001-.098-.004-.2v-.037l-.009-.235-.003-.062-.01-.2q0-.025-.003-.051l-.015-.245-.004-.057-.016-.208q-.002-.03-.005-.06l-.023-.255q-.002-.024-.005-.049a29 29 0 0 0-.062-.554q-.001-.016-.004-.032l-.031-.242-.01-.072-.04-.279C75.989-1.407 66.3.09 66.3.09l.31 1.983-5.859 5.869.256 2.266 2.22 1.296a3.4 3.4 0 0 1 .378-.677c1.433-1.566 4.21-2.795 5.006-3.05.16-.051.25-.077.25-.077-3.804 4.668-3.372 10.016-3.202 11.29-.177.033-.313.235-.313.481 0 .269.162.486.361.486h1.223c-2.034.808-3.65 2.346-4.492 4.278l-.003.008q-.093.214-.174.436v.005a7 7 0 0 0-.091.274l-.018.057-.032.105-.018.065a3 3 0 0 0-.047.172l-.025.097-.023.1-.025.111h-.488a.74.74 0 0 0-.508.19.67.67 0 0 0-.212.478.64.64 0 0 0 .212.478.7.7 0 0 0 .508.19H78.78a.74.74 0 0 0 .508-.19.637.637 0 0 0 0-.955.7.7 0 0 0-.508-.19z"/></svg>